<svg xmlns="http://www.w3.org/2000/svg" viewBox="0 0 800 180">
  <defs>
    <linearGradient id="heroGrad" x1="0%" y1="0%" x2="100%" y2="100%">
      <stop offset="0%" style="stop-color:#1a1a2e;stop-opacity:1"/>
      <stop offset="100%" style="stop-color:#16213e;stop-opacity:1"/>
    </linearGradient>
    <linearGradient id="accentGrad" x1="0%" y1="0%" x2="100%" y2="0%">
      <stop offset="0%" style="stop-color:#4a90d9"/>
      <stop offset="100%" style="stop-color:#7b68ee"/>
    </linearGradient>
  </defs>
  <rect width="800" height="180" rx="10" fill="url(#heroGrad)"/>
  <rect x="0" y="0" width="6" height="180" fill="url(#accentGrad)" rx="3"/>
  <g transform="translate(50, 50)">
    <path d="M30 10 C50 10, 60 30, 60 50 C60 70, 50 90, 30 90 C20 90, 10 80, 10 65"
          stroke="#4a90d9" stroke-width="4" fill="none" stroke-linecap="round"/>
    <circle cx="30" cy="90" r="5" fill="#7b68ee"/>
    <path d="M20 20 L40 20 L40 50 C40 65, 30 75, 20 75 C10 75, 0 65, 0 50 L0 20 Z"
          stroke="#7b68ee" stroke-width="1.5" fill="none" opacity="0.4" transform="translate(10, 0) scale(0.6)"/>
  </g>
  <text x="160" y="75" fill="#e0e0e0" font-size="36" font-family="system-ui, sans-serif" font-weight="bold">hello-goal</text>
  <text x="160" y="110" fill="#8892b0" font-size="15" font-family="system-ui, sans-serif">Global API Recovery + Hybrid Guardian for Claude Code</text>
  <line x1="160" y1="130" x2="460" y2="130" stroke="#4a90d9" stroke-width="2" stroke-linecap="round" opacity="0.5"/>
  <rect x="160" y="145" width="80" height="22" rx="11" fill="#4a90d9" opacity="0.15"/>
  <text x="200" y="160" text-anchor="middle" fill="#4a90d9" font-size="11" font-family="system-ui, sans-serif">v2.3.5</text>
</svg>
